<?xml version="1.0" encoding="UTF-8"?>
<svg id="katman_1" data-name="katman 1" xmlns="http://www.w3.org/2000/svg" version="1.1" viewBox="0 0 841.89 595.28">
  <defs>
    <style>
      .cls-1 {
        fill: #29363d;
      }

      .cls-1, .cls-2 {
        stroke-width: 0px;
      }

      .cls-2 {
        fill: #6363f1;
      }
    </style>
  </defs>
  <path id="logo-text" class="cls-1" d="M277.2,251.78h18.93l13.63,56.15c2.52,10.6,3.02,16.91,3.02,16.91h.26s.88-6.18,3.41-16.91l12.99-56.15h21.45l13.75,56.15c2.65,10.98,3.29,16.91,3.29,16.91h.38s.25-5.93,2.77-16.91l13.12-56.15h18.93l-23.97,92.11h-21.07l-14.5-55.78c-3.03-12.11-3.29-17.53-3.29-17.53h-.26s-.26,5.42-3.02,17.53l-13.63,55.77h-21.7s-24.48-92.11-24.48-92.11ZM399.96,310.42c0-21.08,13.63-34.7,34.2-34.7s34.06,13.62,34.06,34.69-13.63,34.96-34.06,34.96c-20.57,0-34.2-13.76-34.2-34.96h0ZM450.56,310.42c0-13.63-6.56-21.33-16.4-21.33-10.6,0-16.53,8.58-16.53,21.33,0,13.88,6.56,21.57,16.53,21.57,10.6,0,16.4-8.59,16.4-21.58h0ZM476.67,276.75h16.78v12.37h.38c2.91-6.44,9.84-12.87,21.7-12.87,2.01,0,3.28.26,4.16.5v16.78h-.5s-1.51-.5-5.68-.5c-12.99,0-20.06,7.69-20.06,22.08v28.76h-16.78v-67.12ZM527.52,251.78h16.78v29.53c0,17.41-.26,20.57-.26,20.57h.26l24.98-25.11h20.94l-29.26,29.02,33.94,38.11h-19.82l-24.48-27.76-6.31,6.18v21.57h-16.78v-92.1h0ZM595.14,298.17c0-28.39,17.67-47.31,44.17-47.31s44.16,18.92,44.16,47.31-17.67,47.31-44.16,47.31-44.17-18.92-44.17-47.31ZM665.17,298.17c0-19.3-10.34-32.31-25.87-32.31s-25.86,13-25.86,32.31,10.34,32.31,25.86,32.31,25.87-13,25.87-32.31ZM689.89,313.23h19.18c0,10.85,7.45,16.91,18.8,16.91,9.59,0,16.15-4.8,16.15-11.61,0-7.69-5.04-9.72-21.08-12.87-14.64-2.91-30.16-7.83-30.16-27.01,0-16.02,13.63-28.13,34.44-28.13s35.08,11.35,35.08,28.51h-19.18c0-8.32-6.43-13.5-15.9-13.5s-15.52,4.67-15.52,11.48c0,7.19,4.16,9.96,17.03,12.61,19.05,4.04,34.69,6.18,34.69,27.38,0,16.8-14.64,28.15-36.21,28.15s-37.35-12.74-37.35-31.91Z"/>
  <path id="logo-icon" class="cls-2" d="M78.52,297.41c0,2.86.75,5.72,2.21,8.19l26.42,45.75c2.71,4.67,6.83,8.49,11.95,10.2,9.7,3.32,20.4-.7,25.52-9.59l6.38-11.05-25.16-43.49,26.57-46.05,6.38-11.04c1.88-3.24,4.43-6.03,7.48-8.19h-40.98c-7.18,0-13.81,3.82-17.38,10.04l-27.17,47.06c-1.45,2.48-2.21,5.31-2.21,8.18Z"/>
  <path id="logo-icon-2" data-name="logo-icon" class="cls-2" d="M229.18,297.41c0-2.86-.75-5.73-2.21-8.19l-26.77-46.35c-5.15-8.85-15.81-12.86-25.52-9.59-5.11,1.71-9.24,5.52-11.95,10.2l-6.03,10.39,25.16,43.55-26.57,46.05-6.38,11.05c-1.9,3.26-4.47,6.03-7.48,8.19h40.98c7.18,0,13.81-3.82,17.38-10.04l27.17-47.06c1.46-2.46,2.21-5.32,2.21-8.18Z"/>
</svg>