<?xml version="1.0" encoding="utf-8"?>
<!-- Generator: Adobe Illustrator 24.1.1, SVG Export Plug-In . SVG Version: 6.00 Build 0)  -->
<svg version="1.1" id="Calque_1" xmlns="http://www.w3.org/2000/svg" x="0px" y="0px"
     viewBox="0 0 245 63" style="enable-background:new 0 0 245 63;" xml:space="preserve">
<style type="text/css">
	.st0{fill:#424242;}
	.st1{fill:#FFFFFF;}
	.st2{fill:#F78C26;}
</style>
    <g>
	<rect class="st0" width="245" height="63"/>
</g>
    <g>
	<g>
		<g>
			<path class="st1" d="M24.9,34.4c-1.6-0.8-2.6-1.5-3.1-2.1c-0.5-0.6-0.7-1.2-0.7-1.9c0-0.7,0.3-1.4,0.9-1.9
				c0.6-0.6,1.3-0.8,2.2-0.8c1.3,0,2.7,0.7,4.1,2l1.7-1.7c-1.9-1.8-3.7-2.7-5.6-2.7c-1.6,0-2.9,0.5-3.9,1.5c-1,1-1.6,2.3-1.6,3.8
				c0,1.2,0.3,2.2,1,3.1c0.7,0.9,1.9,1.8,3.7,2.8c1.7,0.9,2.8,1.6,3.3,2.1c0.5,0.6,0.7,1.2,0.7,2c0,0.9-0.4,1.7-1.1,2.4
				c-0.7,0.7-1.6,1-2.6,1c-1.5,0-2.9-0.7-4.2-2.2l-1.6,1.9c0.7,0.9,1.6,1.6,2.6,2.1c1.1,0.5,2.2,0.8,3.3,0.8c1.7,0,3.2-0.6,4.3-1.7
				c1.2-1.1,1.7-2.5,1.7-4.2c0-1.2-0.3-2.2-1-3.2C28.2,36.3,26.8,35.4,24.9,34.4"/>
            <path class="st1" d="M48.5,26.3c-1.2-0.8-2.5-1.1-4-1.1c-1.5,0-2.8,0.3-4.1,1c-1.3,0.7-2.4,1.7-3.5,3.1V17.9h-2.6v27.9H37v-7.4
				c0-2.7,0.1-4.5,0.4-5.5c0.4-1.5,1.2-2.8,2.4-3.9c1.2-1,2.6-1.6,4.2-1.6c1.4,0,2.5,0.3,3.3,1c0.8,0.7,1.4,1.7,1.7,3
				c0.2,0.8,0.3,2.3,0.3,4.6v9.6h2.6V35.4c0-2.8-0.3-4.8-0.8-6.1C50.6,28.1,49.7,27.1,48.5,26.3"/>
            <path class="st1" d="M73.8,39.9c-0.7,1.3-1.7,2.2-2.9,2.9c-1.2,0.7-2.5,1-3.9,1c-1.4,0-2.7-0.3-3.9-1c-1.2-0.7-2.2-1.7-2.9-2.9
				c-0.7-1.3-1.1-2.6-1.1-4.1c0-2.3,0.8-4.2,2.3-5.8c1.5-1.6,3.4-2.4,5.5-2.4c2.1,0,4,0.8,5.5,2.4c1.5,1.6,2.3,3.5,2.3,5.8
				C74.8,37.3,74.5,38.7,73.8,39.9 M67,25.2c-3.1,0-5.7,1.1-7.7,3.4c-1.9,2-2.8,4.5-2.8,7.3c0,2.8,1,5.3,2.9,7.4
				c2,2.1,4.5,3.2,7.6,3.2c3.1,0,5.6-1.1,7.5-3.2c2-2.1,2.9-4.6,2.9-7.4c0-2.8-0.9-5.2-2.8-7.3C72.7,26.3,70.1,25.2,67,25.2"/>
            <path class="st1" d="M86.4,26c-0.9,0.6-1.7,1.4-2.5,2.6v-2.9h-2.6v20.1h2.6V39c0-3.5,0.2-5.8,0.5-7c0.4-1.5,1-2.6,1.8-3.3
				c0.8-0.7,1.6-1.1,2.5-1.1c0.4,0,0.8,0.1,1.4,0.4l1.4-2.2c-0.8-0.5-1.6-0.7-2.3-0.7C88.2,25.2,87.3,25.4,86.4,26"/>
            <polygon class="st1" points="98.5,18.2 95.9,18.2 95.9,25.7 92.4,25.7 92.4,27.9 95.9,27.9 95.9,45.8 98.5,45.8 98.5,27.9
				102.6,27.9 102.6,25.7 98.5,25.7 			"/>
            <path class="st1" d="M108.4,33.7c0.5-1.9,1.3-3.2,2.3-4.2c1.4-1.3,3.1-1.9,5.1-1.9c1.2,0,2.3,0.3,3.4,0.8c1.1,0.5,2,1.2,2.6,2
				c0.7,0.8,1.2,1.9,1.5,3.3H108.4z M124,29.1c-2-2.6-4.8-3.9-8.2-3.9c-3.3,0-6,1.3-8,3.8c-1.6,2-2.3,4.3-2.3,6.8c0,0,0,0,0,0h20.7
				C126.1,33.1,125.4,30.9,124,29.1"/>
            <polygon class="st1" points="121.1,16.2 117.1,16.2 113.1,21.9 115.7,21.9 			"/>
            <path class="st1" d="M132.8,35.8c0-1.4,0.4-2.8,1.1-4.1c0.7-1.3,1.7-2.3,2.9-3c1.2-0.7,2.5-1.1,4-1.1c2.2,0,4.1,0.8,5.7,2.3
				c1.5,1.6,2.3,3.5,2.3,5.8h2.4V17.9h-2.5v11.5c-1-1.4-2.2-2.5-3.5-3.2c-1.3-0.7-2.8-1.1-4.5-1.1c-2.9,0-5.3,1-7.3,3.1
				c-2,2.1-3,4.5-3,7.4c0,0,0,0.1,0,0.1L132.8,35.8C132.8,35.8,132.8,35.8,132.8,35.8"/>
            <path class="st1" d="M157.8,21.7c0.6,0,1.1-0.2,1.5-0.6c0.4-0.4,0.6-0.9,0.6-1.5c0-0.6-0.2-1.1-0.6-1.5c-0.4-0.4-0.9-0.6-1.5-0.6
				c-0.6,0-1.1,0.2-1.5,0.6c-0.4,0.4-0.6,0.9-0.6,1.5c0,0.6,0.2,1.1,0.6,1.5C156.7,21.4,157.2,21.7,157.8,21.7"/>
            <rect x="156.5" y="25.7" class="st1" width="2.6" height="10.2"/>
            <polygon class="st1" points="169.3,27.9 173.4,27.9 173.4,25.7 169.3,25.7 169.3,18.2 166.7,18.2 166.7,25.7 163.2,25.7
				163.2,27.9 166.7,27.9 166.7,35.8 169.3,35.8 			"/>
            <path class="st1" d="M178.2,21.7c0.6,0,1.1-0.2,1.5-0.6c0.4-0.4,0.6-0.9,0.6-1.5c0-0.6-0.2-1.1-0.6-1.5c-0.4-0.4-0.9-0.6-1.5-0.6
				c-0.6,0-1.1,0.2-1.5,0.6c-0.4,0.4-0.6,0.9-0.6,1.5c0,0.6,0.2,1.1,0.6,1.5C177.1,21.4,177.6,21.7,178.2,21.7"/>
            <rect x="176.9" y="25.7" class="st1" width="2.6" height="10.2"/>
            <path class="st1" d="M188.8,30.1c1.5-1.6,3.4-2.4,5.5-2.4c2.1,0,4,0.8,5.5,2.4c1.5,1.6,2.3,3.5,2.3,5.7h2.6c0,0,0,0,0,0
				c0-2.8-0.9-5.2-2.8-7.3c-2-2.2-4.6-3.4-7.7-3.4c-3.1,0-5.7,1.1-7.7,3.4c-1.8,2-2.8,4.5-2.8,7.3c0,0,0,0,0,0h2.6
				C186.5,33.6,187.3,31.7,188.8,30.1"/>
            <path class="st1" d="M212.6,32.9c0.4-1.5,1.2-2.8,2.4-3.9c1.2-1,2.6-1.6,4.2-1.6c1.4,0,2.5,0.3,3.3,1c0.9,0.7,1.4,1.7,1.7,3
				c0.2,0.7,0.3,2.2,0.3,4.3h2.6v-0.4c0-2.7-0.3-4.8-0.8-6.1c-0.6-1.3-1.4-2.3-2.6-3.1c-1.2-0.8-2.5-1.1-4-1.1c-1.5,0-2.8,0.3-4.1,1
				c-1.3,0.7-2.4,1.7-3.4,3.1v-3.6h-2.6v10.2h2.6C212.3,34.6,212.4,33.6,212.6,32.9"/>
		</g>
	</g>
        <rect x="105.9" y="41.9" class="st2" width="121.1" height="4.9"/>
</g>
</svg>
